<svg xmlns="http://www.w3.org/2000/svg" width="512" height="512" viewBox="0 0 512 512">
<defs><linearGradient id="bg" x1="0" y1="0" x2="0" y2="1"><stop offset="0" stop-color="#2d2d33"/><stop offset="1" stop-color="#18181b"/></linearGradient>
<linearGradient id="bd" x1="0" y1="0" x2="1" y2="1"><stop offset="0" stop-color="#ffa45c"/><stop offset="1" stop-color="#ff6a1f"/></linearGradient></defs>
<rect width="512" height="512" rx="112" fill="url(#bg)"/>
<clipPath id="r0"><rect x="64" y="92" width="384" height="34" rx="9"/></clipPath><g clip-path="url(#r0)">
<rect x="64.0" y="92" width="101.0" height="34" fill="#5e5ce6"/>
<rect x="168.0" y="92" width="21.0" height="34" fill="#ff8a3d"/>
<rect x="192.0" y="92" width="141.0" height="34" fill="#34c759"/>
<rect x="336.0" y="92" width="85.0" height="34" fill="#ff8a3d"/>
<rect x="424.0" y="92" width="24.0" height="34" fill="#5e5ce6"/>
</g>
<clipPath id="r1"><rect x="64" y="138" width="384" height="34" rx="9"/></clipPath><g clip-path="url(#r1)">
<rect x="64.0" y="138" width="101.0" height="34" fill="#5e5ce6"/>
<rect x="168.0" y="138" width="21.0" height="34" fill="#ff8a3d"/>
<rect x="192.0" y="138" width="141.0" height="34" fill="#34c759"/>
<rect x="336.0" y="138" width="85.0" height="34" fill="#ff8a3d"/>
<rect x="424.0" y="138" width="24.0" height="34" fill="#5e5ce6"/>
</g>
<clipPath id="r2"><rect x="64" y="184" width="384" height="34" rx="9"/></clipPath><g clip-path="url(#r2)">
<rect x="64.0" y="184" width="101.0" height="34" fill="#5e5ce6"/>
<rect x="168.0" y="184" width="21.0" height="34" fill="#ff8a3d"/>
<rect x="192.0" y="184" width="141.0" height="34" fill="#34c759"/>
<rect x="336.0" y="184" width="85.0" height="34" fill="#ff8a3d"/>
<rect x="424.0" y="184" width="24.0" height="34" fill="#5e5ce6"/>
</g>
<clipPath id="r3"><rect x="64" y="230" width="384" height="34" rx="9"/></clipPath><g clip-path="url(#r3)">
<rect x="64.0" y="230" width="101.0" height="34" fill="#5e5ce6"/>
<rect x="168.0" y="230" width="21.0" height="34" fill="#ff8a3d"/>
<rect x="192.0" y="230" width="141.0" height="34" fill="#34c759"/>
<rect x="336.0" y="230" width="85.0" height="34" fill="#ff8a3d"/>
<rect x="424.0" y="230" width="24.0" height="34" fill="#5e5ce6"/>
</g>
<clipPath id="r4"><rect x="64" y="276" width="384" height="34" rx="9"/></clipPath><g clip-path="url(#r4)">
<rect x="64.0" y="276" width="101.0" height="34" fill="#5e5ce6"/>
<rect x="168.0" y="276" width="21.0" height="34" fill="#ff8a3d"/>
<rect x="192.0" y="276" width="141.0" height="34" fill="#34c759"/>
<rect x="336.0" y="276" width="85.0" height="34" fill="#ff8a3d"/>
<rect x="424.0" y="276" width="24.0" height="34" fill="#5e5ce6"/>
</g>
<clipPath id="r5"><rect x="64" y="322" width="384" height="34" rx="9"/></clipPath><g clip-path="url(#r5)">
<rect x="64.0" y="322" width="125.0" height="34" fill="#5e5ce6"/>
<rect x="192.0" y="322" width="77.0" height="34" fill="#ff8a3d"/>
<rect x="272.0" y="322" width="29.0" height="34" fill="#34c759"/>
<rect x="304.0" y="322" width="125.0" height="34" fill="#ff8a3d"/>
<rect x="432.0" y="322" width="16.0" height="34" fill="#5e5ce6"/>
</g>
<clipPath id="r6"><rect x="64" y="368" width="384" height="34" rx="9"/></clipPath><g clip-path="url(#r6)">
<rect x="64.0" y="368" width="125.0" height="34" fill="#5e5ce6"/>
<rect x="192.0" y="368" width="77.0" height="34" fill="#ff8a3d"/>
<rect x="272.0" y="368" width="29.0" height="34" fill="#34c759"/>
<rect x="304.0" y="368" width="125.0" height="34" fill="#ff8a3d"/>
<rect x="432.0" y="368" width="16.0" height="34" fill="#5e5ce6"/>
</g>
<rect x="294.0" y="82" width="4" height="330" rx="2" fill="#fff" opacity=".9"/>
<circle cx="392" cy="392" r="86" fill="#18181b"/>
<circle cx="392" cy="392" r="74" fill="url(#bd)"/>
<rect x="379" y="342" width="26" height="70" rx="13" fill="#fff"/>
<circle cx="392" cy="418" r="22" fill="#fff"/>
<rect x="387" y="370" width="10" height="44" rx="5" fill="#ff6a1f"/>
<circle cx="392" cy="418" r="13" fill="#ff6a1f"/>
<rect x="412" y="352" width="16" height="5" rx="2.5" fill="#fff" opacity=".85"/>
<rect x="412" y="368" width="10" height="5" rx="2.5" fill="#fff" opacity=".85"/>
<rect x="412" y="384" width="16" height="5" rx="2.5" fill="#fff" opacity=".85"/>
</svg>